<svg xmlns="http://www.w3.org/2000/svg" xmlns:xlink="http://www.w3.org/1999/xlink" width="21" height="21" viewBox="0 0 21 21"><defs><path id="1u9da" d="M255.83 353.33l-1.19 1.19c-.64.64-1.7.64-2.34 0l-4.82-4.82a1.66 1.66 0 0 1 0-2.34l1.19-1.19c.6-.6.6-1.6 0-2.2l-2.48-2.47c-.6-.61-1.59-.61-2.2 0a6.8 6.8 0 0 0 0 9.6l6.9 6.9a6.8 6.8 0 0 0 9.61 0c.61-.6.61-1.59 0-2.2l-2.47-2.47c-.6-.6-1.6-.6-2.2 0z"/></defs><g><g transform="translate(-241 -340)"><use fill="#fff" fill-opacity="0" stroke="#c6271b" stroke-miterlimit="50" stroke-width="2" xlink:href="#1u9da"/></g></g></svg>